ffmpeg version 3.4.8-0ubuntu0.2 Copyright (c) 2000-2020 the FFmpeg developers
  built with gcc 7 (Ubuntu 7.5.0-3ubuntu1~18.04)
  configuration: --prefix=/usr --extra-version=0ubuntu0.2 --toolchain=hardened --libdir=/usr/lib/x86_64-linux-gnu --incdir=/usr/include/x86_64-linux-gnu --enable-gpl --disable-stripping --enable-avresample --enable-avisynth --enable-gnutls --enable-ladspa --enable-libass --enable-libbluray --enable-libbs2b --enable-libcaca --enable-libcdio --enable-libflite --enable-libfontconfig --enable-libfreetype --enable-libfribidi --enable-libgme --enable-libgsm --enable-libmp3lame --enable-libmysofa --enable-libopenjpeg --enable-libopenmpt --enable-libopus --enable-libpulse --enable-librubberband --enable-librsvg --enable-libshine --enable-libsnappy --enable-libsoxr --enable-libspeex --enable-libssh --enable-libtheora --enable-libtwolame --enable-libvorbis --enable-libvpx --enable-libwavpack --enable-libwebp --enable-libx265 --enable-libxml2 --enable-libxvid --enable-libzmq --enable-libzvbi --enable-omx --enable-openal --enable-opengl --enable-sdl2 --enable-libdc1394 --enable-libdrm --enable-libiec61883 --enable-chromaprint --enable-frei0r --enable-libopencv --enable-libx264 --enable-shared
  libavutil      55. 78.100 / 55. 78.100
  libavcodec     57.107.100 / 57.107.100
  libavformat    57. 83.100 / 57. 83.100
  libavdevice    57. 10.100 / 57. 10.100
  libavfilter     6.107.100 /  6.107.100
  libavresample   3.  7.  0 /  3.  7.  0
  libswscale      4.  8.100 /  4.  8.100
  libswresample   2.  9.100 /  2.  9.100
  libpostproc    54.  7.100 / 54.  7.100
[rawvideo @ 0x556153582a20] Estimating duration from bitrate, this may be inaccurate
Input #0, rawvideo, from '../../SVC-Encoder-20220109T061506Z-001/SVC-Encoder/Dataset/RollerCoaster/ERP_8x8/tile_yuv/Tile_39_480x240.yuv':
  Duration: 00:00:10.00, start: 0.000000, bitrate: 41472 kb/s
    Stream #0:0: Video: rawvideo (I420 / 0x30323449), yuv420p, 480x240, 41472 kb/s, 30 tbr, 30 tbn, 30 tbc
Stream mapping:
  Stream #0:0 -> #0:0 (rawvideo (native) -> h264 (libx264))
Press [q] to stop, [?] for help
[libx264 @ 0x55615358fc60] using cpu capabilities: MMX2 SSE2Fast LZCNT SSSE3 SSE4.2 AVX
[libx264 @ 0x55615358fc60] profile High, level 2.1
Output #0, rawvideo, to 'RollerCoaster_Tile_39_480x240_x264_QP_40.h264':
  Metadata:
    encoder         : Lavf57.83.100
    Stream #0:0: Video: h264 (libx264), yuv420p, 480x240, q=-1--1, 30 fps, 30 tbn, 30 tbc
    Metadata:
      encoder         : Lavc57.107.100 libx264
    Side data:
      cpb: bitrate max/min/avg: 0/0/0 buffer size: 0 vbv_delay: -1
frame=  168 fps=0.0 q=46.0 PSNR=Y:nan U:nan V:nan *:nan size=      37kB time=00:00:04.16 bitrate=  72.1kbits/s speed=8.32x    frame=  300 fps=0.0 q=46.0 LPSNR=Y:inf U:inf V:inf *:inf size=      80kB time=00:00:09.93 bitrate=  66.1kbits/s speed=10.9x    
video:80kB audio:0kB subtitle:0kB other streams:0kB global headers:0kB muxing overhead: 0.000000%
[libx264 @ 0x55615358fc60] frame I:2     Avg QP:37.84  size:  4746  PSNR Mean Y:31.11 U:39.86 V:40.74 Avg:32.61 Global:32.58
[libx264 @ 0x55615358fc60] frame P:76    Avg QP:40.39  size:   605  PSNR Mean Y:29.94 U:40.27 V:40.62 Avg:31.51 Global:31.50
[libx264 @ 0x55615358fc60] frame B:222   Avg QP:45.50  size:   120  PSNR Mean Y:29.61 U:40.16 V:40.42 Avg:31.19 Global:31.17
[libx264 @ 0x55615358fc60] consecutive B-frames:  1.3%  0.0%  0.0% 98.7%
[libx264 @ 0x55615358fc60] mb I  I16..4: 25.1% 65.3%  9.6%
[libx264 @ 0x55615358fc60] mb P  I16..4:  0.9%  1.2%  0.1%  P16..4: 39.2%  4.8%  0.9%  0.0%  0.0%    skip:52.9%
[libx264 @ 0x55615358fc60] mb B  I16..4:  0.0%  0.0%  0.0%  B16..8: 17.8%  0.4%  0.0%  direct: 0.0%  skip:81.8%  L0:34.5% L1:65.2% BI: 0.3%
[libx264 @ 0x55615358fc60] 8x8 transform intra:59.5% inter:85.0%
[libx264 @ 0x55615358fc60] coded y,uvDC,uvAC intra: 43.0% 55.4% 11.3% inter: 1.7% 1.7% 0.0%
[libx264 @ 0x55615358fc60] i16 v,h,dc,p: 29% 19% 33% 20%
[libx264 @ 0x55615358fc60] i8 v,h,dc,ddl,ddr,vr,hd,vl,hu: 18%  7% 29%  5%  6% 12%  5%  6% 12%
[libx264 @ 0x55615358fc60] i4 v,h,dc,ddl,ddr,vr,hd,vl,hu: 21% 15% 25%  6%  6%  7%  6%  5% 10%
[libx264 @ 0x55615358fc60] i8c dc,h,v,p: 68% 10% 16%  6%
[libx264 @ 0x55615358fc60] Weighted P-Frames: Y:0.0% UV:0.0%
[libx264 @ 0x55615358fc60] ref P L0: 64.2% 11.9% 17.7%  6.2%
[libx264 @ 0x55615358fc60] ref B L0: 82.7% 15.6%  1.7%
[libx264 @ 0x55615358fc60] ref B L1: 82.9% 17.1%
[libx264 @ 0x55615358fc60] PSNR Mean Y:29.702 U:40.189 V:40.475 Avg:31.278 Global:31.261 kb/s:65.66
